<?xml version="1.0" encoding="utf-8"?>
<!-- Generator: Adobe Illustrator 26.5.0, SVG Export Plug-In . SVG Version: 6.00 Build 0)  -->
<svg version="1.0" id="katman_1" xmlns="http://www.w3.org/2000/svg" xmlns:xlink="http://www.w3.org/1999/xlink" x="0px" y="0px"
	 viewBox="0 0 1190.55 841.89" style="enable-background:new 0 0 1190.55 841.89;" xml:space="preserve">
<style type="text/css">
	.st0{fill:#ED6869;}
	.st1{fill:#ED6A6B;}
</style>
<path class="st0" d="M166.73,395.45c-3.72-1.19-6.37-2.09-9.05-2.91c-18.28-5.59-24.17-22.84-12.88-38.18
	c5.06-6.87,11.81-11.82,19.55-15.41c19.21-8.93,23.53-6.87,26.59,14.05c0.89,6.09,2.71,7.78,8.31,5.54
	c54.59-21.83,98.88-1.43,139.9,33.42c4.66,3.96,9.8,13.83,16.53,7.32c4.51-4.36-3.77-10.86-7.02-15.95
	c-9.74-15.28-22.44-28.71-27.76-46.71c-2.86-9.68-4.01-19.41-2-29.1c1.76-8.48,6.98-11.84,14.92-5.47
	c7.84,6.29,13.89,13.94,17.36,23.44c6.41,17.53,12.57,35.15,19.32,52.54c1.52,3.91,1.22,12.27,8.11,9.53
	c5.64-2.24,1.38-8.6,0.1-13.04c-5.56-19.34-11.72-38.52-16.62-58.02c-2.03-8.08-6.71-20.34,2.55-24.01
	c11.07-4.39,18.8,6.74,23.87,15.63c11.9,20.88,13.12,44.14,11.15,67.29c-0.93,10.91,0.46,18.75,10.07,25.13
	c8.63,5.73,15.59,13.59,21.51,22.17c13.1,18.96,9.13,32.03-11.11,43.15c-7.64,4.2-21.94,1.18-22.14,11.71
	c-0.13,6.66,10.48,13.39,15.97,20.33c7.64,9.65,15.37,19.26,17.78,31.87c1.32,6.92,3.15,14.26-4.44,18.39
	c-7.03,3.83-13.49,0-18.96-4.43c-9.69-7.82-16.52-18.19-24.16-27.84c-21.42-27.05-47.16-49.01-78.51-63.77
	c-53.4-25.14-105.33-20.44-155.5,9.28c-8.46,5.01-15.96,11.65-24.51,16.5c-5.79,3.28-10.14,14.42-17.91,8.07
	c-6.55-5.35-2.78-14.7,0.15-22.06c7.64-19.2,21.12-34.21,35.84-48.2C150.85,408.98,158.43,402.74,166.73,395.45z M892.53,430.77
	c-13.39,30.08-36.73,40.66-69.54,30.13c-2.19,24.87,2.88,48.85,0.46,72.86c-0.76,7.55-0.06,15.91-10.74,15.66
	c-8.81-0.2-14.4-4.82-15.22-14.56c-4.11-48.58-4.5-97.15,0.66-145.65c1.33-12.46,7.47-14.78,17.67-6.99
	c2.88,2.2,4.03,2.36,7.16,1.58c37.48-9.41,50.89-3.44,70.64,31.15c5.17-1.57,4.94-6.81,6.92-10.41c10.69-19.41,34.62-29.46,55.75-23
	c12.93,3.95,21.8,11.4,21.28,26.28c-0.53,15.08-10.64,21.84-23.48,24.36c-8.42,1.66-17.44,0.31-26.7,0.31
	c7.4,13.6,17.04,17.03,33.84,12.12c20.33-5.94,28.51-22.91,35.88-40.37c1.91-4.52-2.17-7.09-4.19-10.31
	c-3.82-6.1-5.57-12.74-3.15-19.7c1.64-4.72,4.33-8.97,10.33-9.13c5.65-0.16,10.73,2.67,11.33,7.64
	c1.96,16.41,14.35,14.96,25.32,15.57c23.79,1.31,27.98,7.3,19.63,29.28c-1.74,4.59-3.96,9.01-5.6,13.63
	c-1.71,4.82-6.52,11.27-0.76,14.43c5.11,2.8,9.63-3.7,12.82-7.82c6.58-8.48,12.49-17.46,18.61-26.14c3.42,0.46,4.05,2.98,4.34,5.26
	c2.56,19.64-19.7,47.69-38.76,49c-17.57,1.21-28.12-10.97-24.01-27.9c1.04-4.28,3.27-8.33,3.91-12.64
	c0.78-5.21,10.2-11.76,0.91-15.3c-7.63-2.91-18.77-8.7-23.19,7.22c-2.54,9.18-8.34,17.87-14.21,25.64
	c-26.16,34.67-72.82,30.19-92.79-8.55C896.79,432.76,896.33,430.65,892.53,430.77z M863.59,422.9c0.25-12.69-9.27-24.22-20.3-24.62
	c-13.12-0.48-23.14,9.24-23.51,22.79c-0.38,13.95,8.5,23.8,21.77,24.16C853.64,445.56,863.34,435.73,863.59,422.9z M936.67,420.54
	c7.43-2.65,18.9-0.58,19.21-13.23c0.19-7.48-6.32-9.72-12.6-9.08c-9.16,0.92-15.78,6.07-17.17,15.48
	C924.92,421.78,931.79,419.67,936.67,420.54L936.67,420.54z"/>
<path class="st1" d="M511.1,418.46c9.23-10.58,14.92-22.12,24.8-30.66c7.92-6.84,16.91-10.83,27.24-7.34
	c9.5,3.21,10.57,12.38,11.51,20.63c1.11,9.73,0.91,19.61,1.83,29.36c0.59,6.27-1.64,15.79,9.37,14.48c8.84-1.05,9.27-7.92,8.1-15.77
	c-3.48-23.24,11.18-43.54,34.59-48.95c25.02-5.78,50.2,7,57.78,29.32c5.47,16.08,0.12,33.06-14.1,44.79
	c-15.42,12.72-38.33,15.71-55.31,4.63c-9.37-6.11-14.51-5.7-23.34,0.91c-17.17,12.85-36.33,4.3-41.56-16.63
	c-2.06-8.27-1.62-16.59-2.12-24.9c-0.27-4.37,0.2-9.61-4.75-11.47c-5.7-2.14-9.24,2.43-12.24,6.23
	c-9.56,12.1-15.54,26.18-21.22,40.31c-2.73,6.78-5.08,12.98-14.18,11.89c-9.28-1.1-8.49-8.97-8.96-14.68
	c-3.88-47.55-5.68-95.14-1.07-142.79c0.91-9.39,6.18-13.12,14.42-13.34c9.07-0.24,11.46,6.21,11.66,13.84
	c0.71,26.54,0.92,53.07-1.03,79.58C511.76,398.09,511.55,408.28,511.1,418.46z M640.01,445.18c11.1,0.26,19.6-9.53,19.77-22.76
	c0.16-12.76-8.45-23.71-18.9-24.02c-10.35-0.31-19.64,10.52-19.88,23.15C620.76,434.39,629.24,444.93,640.01,445.18z M691.88,464.52
	c1.32-24.74,2.28-49.25,4.05-73.71c0.98-13.5,7.37-16.78,18.12-8.68c4.62,3.48,6.95,1.64,10.14,0.26c10.97-4.7,22.22-4.45,33.3-1.32
	c22.59,6.38,36.62,28.28,32.25,49.51c-4.41,21.45-30.26,39.26-53.46,33.63c-15.97-3.88-15.71,2.36-15.11,14.08
	c0.95,18.61,0.45,37.28,0.84,55.92c0.17,8.15-1.06,15.63-11.09,15.32c-8.63-0.27-14.9-4.91-15.23-14.68
	c-0.05-1.47-0.22-2.94-0.3-4.4L691.88,464.52L691.88,464.52z M761.11,421.59c-0.1-12.85-8.62-22.9-19.7-23.23
	c-13.11-0.4-22.71,9.44-22.84,23.42c-0.14,14.51,8.37,23.48,22.27,23.44C753.39,445.18,761.22,436.06,761.11,421.59z"/>
</svg>
